<svg width="30" height="29" viewBox="0 0 30 29" xmlns="http://www.w3.org/2000/svg"><path d="M14 29v-2.5c0-1.82-.803-4.87-1.582-9.54-.35-2.2-.93-4.49-1.733-6.867-.817-2.417-1.67-4.312-2.563-5.686-.69-1.043-1.514-1.564-2.47-1.564-1.08 0-1.833.42-2.26 1.26-.39.775-.584 1.62-.584 2.536 0 1.933.684 3.682 2.054 5.246H1.658C.553 10.17 0 8.356 0 6.45 0 4.45.528 2.886 1.583 1.754 2.676.585 4 0 5.56 0c2.01 0 3.58.84 4.71 2.518 1.28 1.896 2.35 4.198 3.204 6.907.603 1.972 1.11 4.153 1.526 6.544.415-2.392.923-4.573 1.526-6.545.804-2.646 1.872-4.948 3.204-6.907C20.86.84 22.43 0 24.44 0c1.56 0 2.884.585 3.977 1.755C29.472 2.887 30 4.452 30 6.45c0 1.907-.553 3.72-1.658 5.436h-3.204c1.37-1.564 2.054-3.313 2.054-5.247 0-.916-.195-1.762-.584-2.538-.427-.84-1.18-1.26-2.26-1.26-.956 0-1.78.522-2.47 1.565-.892 1.374-1.746 3.27-2.563 5.686-.804 2.378-1.382 4.668-1.733 6.868C16.802 21.63 16 24.68 16 26.5V29" fill="#fff"/></svg>