<svg width="31" height="25" viewBox="0 0 31 25" xmlns="http://www.w3.org/2000/svg"><path d="M.89 17.35c1.258.806 2.467 1.46 3.628 1.958 2.958 1.29 6.24 1.936 9.848 1.936 2.267 0 4.416-.257 6.448-.77-.18-.153-.346-.306-.498-.458-.622-.638-1.078-1.318-1.368-2.04-.304-.75-.456-1.547-.456-2.394 0-.832.152-1.623.456-2.373.318-.792.774-1.472 1.368-2.04.65-.625 1.32-1.083 2.01-1.374.72-.306 1.508-.458 2.365-.458.9 0 1.687.152 2.364.458.802.36 1.472.818 2.012 1.373.62.638 1.078 1.318 1.368 2.04.304.75.456 1.54.456 2.372 0 .833-.152 1.63-.456 2.394-.332.833-.857 1.547-1.576 2.144-1.01.833-2.163 1.526-3.462 2.08-3.373 1.445-7.05 2.166-11.03 2.166-4.077 0-7.754-.72-11.03-2.165-.843-.373-1.658-.77-2.446-1.185V17.35m22.62 1.146c.36.153.752.23 1.18.23.43 0 .823-.077 1.183-.23.373-.166.712-.395 1.016-.687.275-.278.503-.618.683-1.02.152-.375.228-.778.228-1.208 0-.416-.075-.812-.227-1.186-.152-.36-.38-.7-.684-1.02-.264-.264-.603-.493-1.017-.687-.36-.154-.754-.23-1.182-.23-.428 0-.82.076-1.18.23-.374.165-.713.394-1.017.686-.276.277-.504.617-.684 1.02-.153.374-.23.77-.23 1.186 0 .43.077.833.23 1.207.15.36.38.7.683 1.02.263.263.602.492 1.016.686M30.89 7.38c-1.258-.804-2.467-1.456-3.628-1.956-2.958-1.29-6.24-1.935-9.848-1.935-2.267 0-4.416.255-6.448.77.18.15.346.304.498.457.622.638 1.078 1.318 1.368 2.04.304.75.456 1.547.456 2.393 0 .833-.152 1.624-.456 2.373-.318.79-.774 1.47-1.368 2.04-.65.625-1.32 1.083-2.01 1.374-.72.305-1.508.458-2.365.458-.9 0-1.687-.153-2.364-.458-.802-.36-1.472-.82-2.012-1.374-.622-.638-1.078-1.318-1.368-2.04-.304-.75-.456-1.54-.456-2.373 0-.832.152-1.63.456-2.393.332-.833.857-1.548 1.576-2.144 1.01-.833 2.163-1.527 3.462-2.082C9.757 1.09 13.434.367 17.414.367c4.077 0 7.754.722 11.03 2.165.843.376 1.658.77 2.446 1.187V7.38M8.27 6.237c-.36-.152-.753-.23-1.18-.23-.43 0-.823.078-1.183.23-.373.167-.712.396-1.016.687-.275.278-.503.618-.683 1.02-.152.375-.228.777-.228 1.207 0 .417.075.812.227 1.187.152.36.38.7.684 1.02.264.263.603.492 1.017.687.36.152.754.23 1.182.23.427 0 .82-.078 1.18-.23.374-.167.713-.396 1.017-.687.276-.278.504-.618.684-1.02.153-.375.23-.77.23-1.187 0-.43-.077-.832-.23-1.207-.15-.36-.38-.7-.683-1.02-.263-.264-.602-.493-1.016-.687" fill="#fff"/></svg>