<svg width="31" height="30" viewBox="0 0 31 30" xmlns="http://www.w3.org/2000/svg"><path d="M16.418 20.82c-.23-.35-.45-.717-.654-1.104-1.04-1.963-1.56-4.125-1.56-6.488V11.6c0-2.297-.134-4.034-.403-5.21-.41-1.806-.916-2.71-1.52-2.71-.615 0-1.468 1.155-2.56 3.467-.858 1.82-1.288 3.757-1.288 5.81v4.86H5.545v-6.216c0-2.284-.166-4.02-.5-5.21-.513-1.806-1.533-2.71-3.06-2.71H.6V0h1.616c1.938 0 3.42.878 4.446 2.634.564.968.942 1.924 1.135 2.866.385-1.15.898-2.143 1.54-2.982C10.63.838 11.754 0 12.703 0c.91 0 1.88.878 2.906 2.634.55.93.898 1.885 1.04 2.866.255 1.795.384 3.338.384 4.63v2.15c0 1.845.243 3.427.73 4.744.475-1.046 1.014-1.88 1.617-2.498.58-.594 1.348-1.085 2.31-1.472.77-.31 1.662-.465 2.675-.465.86 0 1.655.154 2.386.464.745.31 1.42.768 2.022 1.375.59.593 1.045 1.277 1.366 2.052.308.76.462 1.568.462 2.42 0 .84-.154 1.64-.462 2.402-.32.775-.776 1.46-1.366 2.053-.552.555-1.225 1.014-2.02 1.375-.68.31-1.54.465-2.58.465-1.05 0-2.04-.155-2.963-.465-.937-.31-1.803-.788-2.598-1.433-.22.567-.45 1.103-.693 1.606-.566 1.137-1.24 2.034-2.022 2.692-1.013.853-1.956 1.447-2.828 1.782-1.052.413-2.156.62-3.31.62H8.682v-2.905H9.76c.86 0 1.59-.136 2.193-.407.744-.323 1.354-.71 1.83-1.162.537-.49.986-1.065 1.346-1.724.41-.748.84-1.743 1.288-2.982m3.27-.755c.963 1.058 1.893 1.717 2.79 1.975.58.168 1.15.252 1.714.252.603 0 1.09-.084 1.463-.252.41-.18.776-.426 1.096-.736.31-.31.56-.678.752-1.104.167-.374.25-.807.25-1.297 0-.465-.083-.904-.25-1.317-.154-.388-.404-.756-.75-1.104-.32-.31-.687-.556-1.097-.736-.385-.168-.81-.252-1.27-.252-.437 0-.892.084-1.367.252-.526.193-.923.44-1.193.736-.91 1.033-1.623 2.227-2.136 3.583" fill="#fff"/></svg>