<svg width="24" height="30" viewBox="0 0 24 30" xmlns="http://www.w3.org/2000/svg"><path d="M16.63 23.355c-.117.453-.175.827-.175 1.124 0 .45.057.82.173 1.103.154.336.336.6.543.794.233.22.49.394.776.522.285.13.725.193 1.32.193.53 0 .994-.092 1.396-.272.504-.22.93-.497 1.28-.83l2.054 2.052c-.57.542-1.318 1.03-2.25 1.47-.67.324-1.498.485-2.48.485-.995 0-1.797-.135-2.403-.406-.698-.31-1.28-.696-1.746-1.16-.516-.52-.903-1.09-1.16-1.726-.262-.644-.39-1.387-.39-2.226 0-.917.137-1.717.407-2.4.983-2.415 1.94-4.236 2.87-5.462 1.163-1.537 2.06-3.17 2.694-4.9.285-.762.428-1.627.428-2.596 0-1.045-.143-1.918-.427-2.614-.272-.67-.698-1.304-1.28-1.897-.503-.517-1.13-.942-1.88-1.278-.633-.284-1.37-.426-2.21-.426-.8 0-1.54.14-2.21.424-.646.27-1.273.697-1.88 1.28-.556.528-.983 1.16-1.28 1.896-.284.698-.426 1.44-.426 2.228 0 .84.142 1.576.426 2.21.35.76.848 1.716 1.494 2.865.866 1.51 1.3 2.942 1.3 4.3 0 .773-.143 1.51-.428 2.206-.27.67-.698 1.305-1.28 1.898-.503.516-1.13.943-1.88 1.277-.633.286-1.37.428-2.21.428-.8 0-1.538-.142-2.21-.427-.646-.27-1.273-.695-1.88-1.276-.556-.53-.982-1.162-1.28-1.898C.142 19.62 0 18.884 0 18.11c0-.788.142-1.532.426-2.23.272-.67.698-1.303 1.28-1.896.504-.518 1.13-.943 1.88-1.28.634-.283 1.37-.425 2.21-.425h.33c-.44-.997-.66-2.17-.66-3.526 0-1.254.214-2.376.64-3.37.466-1.085 1.106-2.034 1.92-2.847.814-.813 1.757-1.445 2.83-1.897C11.864.214 12.97 0 14.17 0c1.27 0 2.374.214 3.317.64 1.125.503 2.067 1.136 2.83 1.897.854.854 1.492 1.803 1.92 2.85.426 1.045.64 2.297.64 3.756 0 1.446-.214 2.68-.64 3.7-.803 1.95-1.79 3.744-2.967 5.383-1.33 1.897-2.21 3.61-2.637 5.134m-9.737-7.964c-.335-.14-.703-.212-1.104-.212-.4 0-.77.07-1.105.213-.348.156-.664.37-.95.64-.283.298-.496.614-.638.95-.143.348-.215.723-.215 1.123 0 .387.072.754.214 1.104.14.336.354.652.64.95.283.27.6.482.95.638.334.143.703.213 1.103.213s.77-.07 1.105-.213c.35-.155.667-.368.95-.64.286-.296.5-.612.64-.948.143-.35.214-.717.214-1.104 0-.4-.07-.775-.213-1.123-.14-.338-.355-.654-.64-.95-.284-.27-.6-.484-.95-.64" fill="#fff"/></svg>