<svg width="30" height="29" viewBox="0 0 30 29" xmlns="http://www.w3.org/2000/svg"><path d="M0 20v-3h7c-.483-.633-.968-1.73-1.29-2.47-.496-1.17-.744-2.407-.744-3.715 0-1.35.248-2.606.744-3.776.523-1.21 1.26-2.277 2.212-3.2.952-.92 2.038-1.637 3.258-2.146 1.166-.48 2.44-.72 3.82-.72 1.448 0 2.72.24 3.82.72 1.273.565 2.36 1.28 3.258 2.147.95.924 1.69 1.99 2.212 3.202.495 1.17.743 2.426.744 3.774 0 1.308-.25 2.545-.744 3.714-.322.742-.808 1.838-1.29 2.47h7v3H19v-3.407c.51-.29.49-.64.945-1.053.658-.59 1.174-1.32 1.55-2.187.348-.81.52-1.664.52-2.558 0-.908-.172-1.77-.52-2.58-.362-.81-.88-1.54-1.55-2.188-.63-.59-1.387-1.08-2.27-1.465-.765-.33-1.655-.494-2.675-.494-.965 0-1.857.165-2.674.495-.845.344-1.602.833-2.272 1.465-.67.647-1.187 1.376-1.55 2.188-.347.812-.52 1.672-.52 2.58 0 .894.173 1.746.52 2.558.363.812.88 1.54 1.55 2.187.415.4.41.75.946 1.054v3.408M0 29v-3h30v3H0" fill="#fff"/></svg>