<svg width="26" height="31" viewBox="0 0 26 31" xmlns="http://www.w3.org/2000/svg"><path d="M9.606 17c-.157 2.652-.702 5.31-1.634 7.6-.853 2.105-2.086 4.127-3.7 6.07H.197c2.4-2.385 4.08-4.796 5.04-7.234.787-1.983 1.12-4.252 1.263-6.436H1v-3h5.5c-.144-2.184-.476-4.094-1.264-6.076C4.266 5.486 2.586 3.068.196.67h4.076c1.6 1.942 2.834 3.972 3.7 6.088.945 2.29 1.49 4.59 1.634 7.242H15.5c.144-2.652.976-4.95 1.92-7.242.867-2.116 2.1-4.146 3.702-6.088h4.075c-2.39 2.398-4.068 4.816-5.04 7.254C19.37 9.906 18.645 11.816 18.5 14H24v3h-5.5c.144 2.184.87 4.453 1.658 6.436.957 2.438 2.637 4.85 5.04 7.234H21.12c-1.614-1.943-2.848-3.965-3.7-6.07-.932-2.33-1.765-4.988-1.922-7.6" fill="#fff"/></svg>