<svg width="26" height="30" viewBox="0 0 26 30" xmlns="http://www.w3.org/2000/svg"><path d="M19.6 27.666c-.553-.248-1.015-.558-1.384-.93-.41-.413-.718-.873-.924-1.38-.205-.516-.308-1.115-.308-1.796V9.303c0-1.84-.107-3.228-.323-4.168-.327-1.446-.733-2.17-1.215-2.17-.493 0-1.175.925-2.047 2.774-.688 1.456-.308 3.117-.308 4.76V23h-3.033L10 9c0-1.828-.05-2.915-.266-3.865-.318-1.446-.724-2.17-1.216-2.17-.493 0-1.175.925-2.048 2.774C5.783 7.195 6 8.356 6 10v13H3.037L3 9c0-2.16-.147-3.772-.702-5.446-.318-.96-.862-1.93-1.63-2.913h2.37c.4.404.754.9 1.062 1.49.348.68.626 1.445.83 2.292.31-.92.72-1.715 1.232-2.386C7.2.693 8.046.02 8.702.02c.73 0 1.504.704 2.325 2.11.318.536.595 1.3.83 2.292.31-.92.72-1.715 1.233-2.386C14.126.693 15.024.02 15.784.02c.728 0 1.503.704 2.324 2.11.44.743 1.38 1.507 1.493 2.292.207 1.436.4 2.545.4 3.578v15.652c0 .393.836 1.193 1 1.348.185.176.774.897 1 1 .226.103 1 0 1 0v-2.348L26 27l-3 3v-2.01h-1.49c-.79 0-1.426-.107-1.91-.324z" fill="#fff"/></svg>