<svg width="31" height="31" viewBox="0 0 31 31" xmlns="http://www.w3.org/2000/svg"><path d="M7.143 7.95c-.344-.84-.834-1.586-1.47-2.242-.587-.603-1.307-1.1-2.16-1.494-.74-.34-1.587-.51-2.542-.51V.753c1.313 0 2.523.243 3.632.728 1.16.51 2.19 1.225 3.095 2.142.917.93 1.618 2 2.102 3.205.343.838.833 1.585 1.47 2.24.586.603 1.306 1.1 2.16 1.494.738.34 1.586.51 2.54.51.918 0 1.765-.17 2.542-.51.816-.354 1.535-.852 2.16-1.494.637-.655 1.127-1.402 1.47-2.24.485-1.207 1.186-2.275 2.103-3.206.904-.917 1.936-1.63 3.095-2.142 1.11-.485 2.32-.728 3.63-.728v2.95c-.954 0-1.802.17-2.54.51-.854.393-1.574.89-2.16 1.494-.637.656-1.127 1.403-1.47 2.24-.485 1.194-1.186 2.262-2.103 3.206-.446.46-1.025.924-1.74 1.396.715.472 1.294.937 1.74 1.396.917.943 1.618 2.01 2.102 3.204.47 1.18.706 2.444.706 3.794 0 1.31-.236 2.556-.707 3.735-.498 1.205-1.198 2.273-2.103 3.204-.904.917-1.936 1.632-3.095 2.143-1.11.485-2.32.727-3.63.727-1.377 0-2.587-.242-3.632-.727-1.21-.564-2.242-1.278-3.095-2.143-.905-.93-1.605-2-2.102-3.205-.47-1.18-.707-2.425-.707-3.736 0-1.35.236-2.614.707-3.794.51-1.27 1.21-2.34 2.102-3.204.548-.538 1.134-1.003 1.758-1.396-.637-.393-1.223-.86-1.758-1.396-.892-.89-1.592-1.96-2.102-3.205m11.37 6.585c-.778-.34-1.625-.51-2.542-.51-.916 0-1.763.17-2.54.51-.79.367-1.51.865-2.16 1.494-.662.707-1.153 1.454-1.47 2.24-.332.826-.498 1.717-.498 2.674 0 .918.166 1.79.497 2.615.317.785.808 1.532 1.47 2.24.65.63 1.37 1.127 2.16 1.494.777.34 1.624.51 2.54.51.918 0 1.765-.17 2.542-.51.79-.367 1.51-.865 2.16-1.494.662-.708 1.152-1.455 1.47-2.24.332-.827.498-1.698.498-2.616 0-.957-.166-1.848-.497-2.673-.32-.786-.81-1.533-1.47-2.24-.65-.63-1.37-1.128-2.16-1.495" fill="#fff"/></svg>