<svg width="26" height="30" viewBox="0 0 26 30" xmlns="http://www.w3.org/2000/svg"><path d="M19.37 22.783c1.165-1.174 2.056-2.51 2.675-4.01.62-1.51.928-3.102.928-4.78 0-1.456-.09-2.515-.267-3.175-.273-1.017-.65-1.526-1.133-1.526-.273 0-.655.493-1.148 1.478-.703 1.405-1.055 2.977-1.055 4.717v7.296M16.098 27.8c-1.164.512-2.433.843-3.807.99v-2.375c1.04-.147 2.01-.414 2.91-.802.65-.283 1.265-.608 1.842-.975-.02-.24-.032-.492-.032-.754V9.418c0-1.866-.11-3.275-.33-4.23-.336-1.467-.75-2.2-1.243-2.2-.503 0-1.556.752-2.092 2.814-.315 1.21-.315 3.03-.315 4.698L13 24h-3V10c0-1.855-.18-3.847-.4-4.81-.325-1.47-.74-2.203-1.243-2.203-.503 0-1.556.753-2.092 2.815C5.95 7.012 6 7.982 6 10v14H3V9.418c0-2.19-.433-4.135-1-5.833C1.677 2.61 1.12 1.625.334.63h2.423c.41.408.77.91 1.086 1.508.356.692.64 1.468.85 2.327.314-.932.734-1.74 1.258-2.42C7.01.68 7.875 0 8.546 0c.745 0 1.537.713 2.376 2.138.325.545.608 1.32.85 2.327.314-.932.734-1.74 1.258-2.42C14.09.68 15.007 0 15.783 0c.745 0 1.537.713 2.376 2.138.45.755.733 1.53.85 2.327.156 1.1.26 2.354.313 3.758.21-.43.472-.833.787-1.21.766-.912 1.437-1.368 2.014-1.368.84 0 1.568.828 2.187 2.484.682 1.823 1.023 3.778 1.023 5.864 0 2.044-.367 3.936-1.1 5.676-.798 1.887-1.894 3.51-3.29 4.874-.44.43-.9.833-1.384 1.21.115.493.267.97.456 1.432.41.995 1.043 1.933 1.903 2.814h-3.053c-.472-.755-.818-1.394-1.038-1.918-.127-.315-.243-.634-.348-.96-.45.242-.912.467-1.384.677z" fill="#fff"/></svg>